<svg width="36" height="36" viewBox="0 0 36 36" fill="none" xmlns="http://www.w3.org/2000/svg">
<path d="M12.2806 25.2013C12.1003 25.2013 11.9281 25.0956 11.852 24.9189C11.7937 24.7832 11.7723 24.683 11.7363 24.5163C11.7195 24.438 11.6976 24.3359 11.6644 24.1957C11.6056 23.9454 11.7609 23.694 12.0114 23.6348C12.2601 23.5783 12.5129 23.7313 12.5726 23.9818C12.6072 24.1301 12.6304 24.2376 12.6482 24.3205C12.6791 24.4644 12.6874 24.4999 12.7092 24.55C12.8108 24.7868 12.7015 25.061 12.4651 25.163C12.405 25.1885 12.3426 25.2013 12.2806 25.2013Z" fill="white"/>
<path d="M17.6191 29.5508C17.5981 29.5508 17.5772 29.55 17.5558 29.5472C15.4999 29.2667 13.6826 28.0988 12.5695 26.3444C12.4314 26.1267 12.4961 25.8388 12.7138 25.7004C12.9306 25.5628 13.2189 25.6266 13.3574 25.8452C14.3225 27.3674 15.8989 28.3794 17.6816 28.6226C17.9371 28.6572 18.1156 28.8923 18.081 29.1473C18.0491 29.3814 17.8486 29.5508 17.6191 29.5508Z" fill="white"/>
<path d="M18.3438 32.8529C12.8218 32.8529 8.3291 28.3602 8.3291 22.838C8.3291 19.2749 13.51 7.68712 14.8335 5.04774C15.7171 3.28602 16.9473 2.31592 18.2982 2.31592C19.0775 2.31592 20.5641 2.67026 21.7684 5.04365C23.1639 7.79464 28.3584 19.2363 28.3584 22.838C28.3584 28.3602 23.8657 32.8529 18.3438 32.8529ZM18.2982 4.18145C17.7075 4.18145 17.0357 4.8177 16.5014 5.88395C14.8804 9.11545 10.1947 19.9641 10.1947 22.838C10.1947 27.3318 13.8502 30.9873 18.3438 30.9873C22.8374 30.9873 26.4928 27.3318 26.4928 22.838C26.4928 20.0083 21.9587 9.54265 20.105 5.88763C19.5548 4.80315 18.8962 4.18145 18.2982 4.18145Z" fill="white"/>
</svg>
