<svg width="41" height="41" viewBox="0 0 41 41" fill="none" xmlns="http://www.w3.org/2000/svg">
<path d="M17.5083 26.0603C19.5708 26.0603 21.5083 25.3103 23.0083 24.0603L31.3208 32.3728L32.4458 31.2478L24.1333 22.9978C25.3833 21.4978 26.1333 19.6228 26.1333 17.4978C26.1333 12.7478 22.2583 8.9353 17.5708 8.9353C12.8833 8.9353 8.9458 12.7478 8.9458 17.4978C8.9458 22.2478 12.7583 26.0603 17.5083 26.0603ZM17.5083 10.4978C21.3833 10.4978 24.5083 13.6228 24.5083 17.4978C24.5083 21.3728 21.3833 24.4978 17.5083 24.4978C13.6333 24.4978 10.5083 21.3728 10.5083 17.4978C10.5083 13.6228 13.6333 10.4978 17.5083 10.4978Z" fill="#004E92"/>
<path d="M17.5083 13.9353V12.3728C15.1333 12.3728 12.3833 13.7478 12.3833 17.4978H13.9458C13.9458 14.1853 16.6958 13.9353 17.5083 13.9353Z" fill="#004E92"/>
</svg>
