<?xml version="1.0" encoding="UTF-8"?>
<svg width="200" height="200" viewBox="0 0 200 200" xmlns="http://www.w3.org/2000/svg">
  <g fill="#F3F7FA" stroke="#D6E3EE" stroke-width="3">
    <ellipse cx="70" cy="78" rx="30" ry="20"/>
    <ellipse cx="108" cy="68" rx="42" ry="28"/>
    <ellipse cx="138" cy="90" rx="26" ry="18"/>
    <rect x="60" y="92" width="80" height="18" rx="9"/>
  </g>
  <g stroke="#7FA7C6" stroke-width="2" stroke-linecap="round" fill="none">
    <g transform="translate(78,130)">
      <line x1="0" y1="-8" x2="0" y2="8"/>
      <line x1="-6" y1="-6" x2="6" y2="6"/>
      <line x1="-6" y1="6" x2="6" y2="-6"/>
    </g>
    <g transform="translate(108,140)">
      <line x1="0" y1="-8" x2="0" y2="8"/>
      <line x1="-6" y1="-6" x2="6" y2="6"/>
      <line x1="-6" y1="6" x2="6" y2="-6"/>
    </g>
    <g transform="translate(138,130)">
      <line x1="0" y1="-8" x2="0" y2="8"/>
      <line x1="-6" y1="-6" x2="6" y2="6"/>
      <line x1="-6" y1="6" x2="6" y2="-6"/>
    </g>
  </g>
</svg>