<svg width="36" height="36" viewBox="0 0 36 36" fill="none" xmlns="http://www.w3.org/2000/svg">
<path d="M10.9441 9.9207C13.3881 9.9207 15.6887 8.96209 17.4485 7.21636C17.5172 7.17404 17.5797 7.12158 17.6362 7.06306C19.283 5.34561 21.4706 4.40113 23.7935 4.40113C26.8651 4.40113 29.745 6.12254 31.311 8.89555C31.5936 9.40004 32.2313 9.5756 32.7297 9.29105C33.2303 9.00647 33.4078 8.36873 33.1233 7.8662C31.1899 4.43942 27.6138 2.3103 23.7934 2.3103C20.9782 2.3103 18.3285 3.4204 16.3063 5.44049C16.2396 5.48288 16.1771 5.53534 16.1186 5.59383C14.7342 7.03677 12.8976 7.83194 10.9441 7.83194C8.70601 7.83194 6.61728 6.78057 5.21465 4.94601C4.86553 4.4879 4.21166 4.40113 3.75557 4.75236C3.29949 5.10334 3.21272 5.75927 3.56192 6.21742C5.36193 8.57061 8.05217 9.9207 10.9441 9.9207Z" fill="white"/>
<path d="M23.7934 9.98291C20.9782 9.98291 18.3285 11.0909 16.3063 13.1111C16.2396 13.1535 16.1771 13.2059 16.1186 13.2644C14.7342 14.7073 12.8976 15.5025 10.9441 15.5025C8.70601 15.5025 6.61728 14.4511 5.21465 12.6167C4.86553 12.1584 4.21166 12.0717 3.75557 12.4229C3.29949 12.7741 3.21272 13.43 3.56192 13.888C5.36193 16.2412 8.05417 17.5913 10.9441 17.5913C13.3881 17.5913 15.6887 16.6327 17.4505 14.887C17.5171 14.8446 17.5797 14.7922 17.6362 14.7317C19.283 13.0162 21.4686 12.0717 23.7934 12.0717C26.8651 12.0717 29.7449 13.7933 31.311 16.5661C31.5936 17.0686 32.2312 17.2442 32.7297 16.9616C33.2303 16.677 33.4078 16.0393 33.1233 15.5367C31.1899 12.11 27.6138 9.98291 23.7934 9.98291Z" fill="white"/>
<path d="M23.7934 17.6533C20.9782 17.6533 18.3285 18.7633 16.3063 20.7834C16.2396 20.8259 16.1771 20.8763 16.1186 20.9368C14.7342 22.3799 12.8976 23.1749 10.9441 23.1749C8.70601 23.1749 6.61728 22.1235 5.21465 20.2891C4.86553 19.8308 4.21166 19.7441 3.75557 20.0953C3.29949 20.4465 3.21272 21.1024 3.56192 21.5604C5.36193 23.9135 8.05417 25.2637 10.9441 25.2637C13.3881 25.2637 15.6887 24.3051 17.4485 22.5594C17.5172 22.5171 17.5797 22.4646 17.6362 22.4041C19.283 20.6887 21.4687 19.7441 23.7935 19.7441C26.8651 19.7441 29.745 21.4656 31.311 24.2385C31.5936 24.7411 32.2313 24.9166 32.7297 24.6341C33.2303 24.3495 33.4078 23.7118 33.1233 23.2093C31.1899 19.7824 27.6138 17.6533 23.7934 17.6533Z" fill="white"/>
<path d="M23.7934 25.3252C20.9782 25.3252 18.3285 26.4352 16.3063 28.4554C16.2396 28.4978 16.1771 28.5502 16.1186 28.6088C14.7342 30.0517 12.8976 30.8469 10.9441 30.8469C8.70601 30.8469 6.61728 29.7954 5.21465 27.961C4.86553 27.5028 4.21166 27.4161 3.75557 27.7672C3.29949 28.1185 3.21272 28.7743 3.56192 29.2324C5.36193 31.5855 8.05417 32.9356 10.9441 32.9356C13.3881 32.9356 15.6887 31.977 17.4485 30.2313C17.5172 30.1889 17.5797 30.1366 17.6362 30.076C19.283 28.3605 21.4686 27.416 23.7934 27.416C26.8651 27.416 29.7449 29.1374 31.311 31.9104C31.5936 32.4129 32.2312 32.5884 32.7297 32.3059C33.2303 32.0213 33.4078 31.3836 33.1233 30.881C31.1899 27.4543 27.6138 25.3252 23.7934 25.3252Z" fill="white"/>
</svg>
